<svg width="61" height="13" viewBox="0 0 61 13" fill="none" xmlns="http://www.w3.org/2000/svg">
<path d="M59 7.60117H1.2C0.6 7.60117 0 7.00117 0 6.40117C0 5.70117 0.6 5.20117 1.2 5.20117H59C59.7 5.20117 60.2 5.80117 60.2 6.40117C60.2 7.00117 59.6 7.60117 59 7.60117Z" fill="#FFD231"/>
<path d="M51.4002 12.7005C51.0002 12.7005 50.6002 12.5005 50.4002 12.2005C50.0002 11.6005 50.2002 10.9005 50.7002 10.5005L56.7002 6.40055L50.7002 2.30055C50.1002 1.90055 50.0002 1.10055 50.4002 0.600547C50.8002 0.000546873 51.6002 -0.0994531 52.1002 0.300547L59.6002 5.40055C59.9002 5.60055 60.1002 6.00055 60.1002 6.40055C60.1002 6.80055 59.9002 7.20055 59.6002 7.40055L52.1002 12.5005C51.9002 12.6005 51.7002 12.7005 51.4002 12.7005Z" fill="#FFD231"/>
</svg>
