<svg width="67" height="67" viewBox="0 0 67 67" fill="none" xmlns="http://www.w3.org/2000/svg">
<path d="M0 0H67V67H0V0Z" fill="#FFD231"/>
<g clip-path="url(#clip0_1_4)">
<path d="M43.8419 29.4658C39.6092 29.9142 39.426 34.5213 39.426 34.5213V46.895L32.0187 50.5031L31.9373 34.6028C31.8559 28.63 25.1607 29.1804 25.1607 29.1804L14.5992 29.0173L15.6777 41.391C15.6777 41.391 17.4888 61.1849 31.4692 59.921C45.4496 58.6572 50.4963 38.9652 51.2289 35.7851C51.9005 32.8701 53.1825 29.4046 53.1825 29.4046C53.1825 29.4046 48.0747 29.0173 43.8419 29.4658Z" fill="#1F1E29"/>
<path d="M58.4534 6.42956C57.8632 6.81687 41.6647 17.2948 16.0035 16.4182C16.0035 16.4182 15.2506 16.2755 14.518 16.3163C13.1953 16.1736 10.7126 15.9086 9.14564 15.7251L7.84325 15.5621C7.8229 15.5621 7.7822 15.5621 7.76185 15.5621C7.538 15.5824 7.3752 15.7659 7.3752 15.9901L7.5787 28.3435C7.5787 28.3435 7.68045 28.955 8.41305 28.8735C9.24739 28.7716 9.30844 28.3027 9.30844 28.3027L9.18634 18.0083L13.1953 18.4364C13.4802 20.1895 14.0296 22.6764 14.0296 22.6764L52.5723 22.2891C52.5723 22.2891 55.4213 22.1464 56.1539 19.3333C56.683 17.3356 59.9796 6.28686 59.9796 6.28686C59.9796 6.28686 59.7558 5.57339 58.4534 6.42956Z" fill="#1F1E29"/>
<path d="M13.2156 33.1747L10.1631 32.665C10.0817 32.6446 10.0003 32.6039 9.9596 32.5223L8.45371 29.7092C8.35196 29.5054 8.06706 29.5257 7.96531 29.7092L6.62222 32.4612C6.58152 32.5427 6.50012 32.6039 6.41872 32.6039L3.20344 33.1543C2.97959 33.195 2.89819 33.4601 3.06099 33.6231L5.34017 35.9063C5.40122 35.9674 5.42157 36.049 5.42157 36.1509L4.91283 39.1679C4.87213 39.3921 5.11633 39.5756 5.31982 39.4533L8.04671 37.8225C8.12811 37.7613 8.22986 37.7613 8.33161 37.8225L11.1195 39.4533C11.323 39.5756 11.5672 39.3921 11.5265 39.1679L10.9364 36.2528C10.916 36.1713 10.9364 36.0693 11.0178 36.0082L13.3784 33.6435C13.5208 33.4804 13.4394 33.2154 13.2156 33.1747Z" fill="#1F1E29"/>
</g>
<defs>
<clipPath id="clip0_1_4">
<rect width="57" height="54" fill="white" transform="translate(3 6)"/>
</clipPath>
</defs>
</svg>
