<svg width="261" height="37" viewBox="0 0 261 37" fill="none" xmlns="http://www.w3.org/2000/svg">
<path d="M106.798 36.5195H98.6915V8.98572H89.8692L87 2.21039H115.621V8.98572H106.798V36.5195Z" fill="#FFD231"/>
<path d="M128.062 9.61039C131.463 9.61039 134.102 10.4113 135.978 12.013C137.854 13.5827 138.791 15.9212 138.791 19.0286V36.5195H133.212L131.638 32.9636H131.447C130.716 33.8926 129.953 34.6615 129.158 35.2701C128.395 35.8788 127.505 36.3113 126.488 36.5675C125.502 36.8558 124.278 37 122.816 37C121.29 37 119.907 36.6957 118.667 36.087C117.459 35.4784 116.505 34.5494 115.806 33.3C115.106 32.0507 114.757 30.4649 114.757 28.5429C114.757 25.7238 115.726 23.6416 117.666 22.2961C119.637 20.9507 122.514 20.1978 126.297 20.0377L130.78 19.8935V19.1247C130.78 17.8433 130.446 16.9143 129.778 16.3377C129.143 15.761 128.252 15.4727 127.108 15.4727C125.963 15.4727 124.771 15.6649 123.531 16.0494C122.291 16.4017 121.036 16.8502 119.764 17.3948L117.332 12.013C118.763 11.2442 120.384 10.6515 122.196 10.2351C124.008 9.81862 125.963 9.61039 128.062 9.61039ZM128.348 24.6026C126.345 24.6667 124.946 25.0351 124.151 25.7078C123.356 26.3485 122.959 27.2294 122.959 28.3507C122.959 29.3437 123.245 30.0645 123.817 30.513C124.39 30.9615 125.121 31.1857 126.011 31.1857C127.346 31.1857 128.475 30.7853 129.397 29.9844C130.319 29.1515 130.78 28.0303 130.78 26.6208V24.5065L128.348 24.6026Z" fill="#FFD231"/>
<path d="M153.636 36.5195H145.577V0H153.636V36.5195Z" fill="#FFD231"/>
<path d="M171.828 9.65844C174.307 9.65844 176.437 10.1229 178.218 11.0519C180.03 11.9489 181.413 13.2944 182.367 15.0883C183.352 16.8502 183.845 19.0446 183.845 21.6714V25.4195H167.297C167.361 27.1494 167.917 28.5268 168.966 29.5519C170.015 30.5771 171.51 31.0896 173.449 31.0896C175.134 31.0896 176.66 30.9294 178.027 30.6091C179.394 30.2887 180.809 29.7762 182.271 29.0714V35.0779C181 35.7507 179.633 36.2312 178.17 36.5195C176.708 36.8398 174.911 37 172.781 37C170.143 37 167.79 36.5195 165.724 35.5584C163.689 34.5974 162.083 33.1238 160.907 31.1377C159.763 29.1195 159.19 26.5727 159.19 23.4974C159.19 20.358 159.715 17.7792 160.764 15.761C161.813 13.7108 163.291 12.1892 165.199 11.1961C167.107 10.171 169.316 9.65844 171.828 9.65844ZM171.971 15.2805C170.731 15.2805 169.698 15.681 168.871 16.4818C168.076 17.2507 167.599 18.484 167.44 20.1818H176.453C176.453 19.2528 176.279 18.4199 175.929 17.6831C175.611 16.9463 175.118 16.3697 174.45 15.9532C173.783 15.5048 172.956 15.2805 171.971 15.2805Z" fill="#FFD231"/>
<path d="M204.853 9.65844C207.619 9.65844 209.845 10.4273 211.53 11.9649C213.246 13.4706 214.105 15.9212 214.105 19.3169V36.5195H206.093V21.5753C206.093 19.7494 205.791 18.3719 205.187 17.4429C204.583 16.5139 203.629 16.0494 202.326 16.0494C200.387 16.0494 199.067 16.7861 198.368 18.2597C197.668 19.7013 197.319 21.7836 197.319 24.5065V36.5195H189.259V10.139H195.364L196.46 13.5507H196.842C197.414 12.6857 198.098 11.9649 198.892 11.3883C199.687 10.8117 200.593 10.3792 201.611 10.0909C202.628 9.8026 203.709 9.65844 204.853 9.65844Z" fill="#FFD231"/>
<path d="M232.755 30.561C233.582 30.561 234.345 30.481 235.044 30.3208C235.743 30.1606 236.459 29.9524 237.19 29.6961V35.6545C236.332 36.039 235.346 36.3593 234.233 36.6156C233.121 36.8719 231.801 37 230.275 37C228.654 37 227.207 36.7437 225.936 36.2312C224.696 35.6866 223.71 34.7736 222.979 33.4922C222.279 32.1788 221.93 30.3688 221.93 28.0623V16.1935H218.592V12.8299L222.597 10.2351L224.791 4.66104H229.941V10.139H236.904V16.1935H229.941V27.774C229.941 28.703 230.196 29.4078 230.704 29.8883C231.213 30.3368 231.897 30.561 232.755 30.561Z" fill="#FFD231"/>
<path d="M261 28.5429C261 30.2727 260.603 31.7784 259.808 33.0597C259.045 34.3091 257.837 35.2861 256.184 35.9909C254.53 36.6636 252.432 37 249.889 37C248.045 37 246.423 36.8879 245.025 36.6636C243.657 36.4394 242.275 36.039 240.876 35.4623V28.9273C242.402 29.6 243.991 30.1286 245.644 30.513C247.329 30.8974 248.728 31.0896 249.841 31.0896C251.049 31.0896 251.923 30.9294 252.464 30.6091C253.004 30.2887 253.275 29.8403 253.275 29.2636C253.275 28.8472 253.132 28.4788 252.845 28.1584C252.591 27.8381 252.051 27.4697 251.224 27.0532C250.429 26.6368 249.237 26.1082 247.647 25.4675C246.09 24.7948 244.802 24.1061 243.785 23.4013C242.799 22.6965 242.052 21.8476 241.543 20.8545C241.066 19.8615 240.828 18.6442 240.828 17.2026C240.828 14.7039 241.782 12.8299 243.689 11.5805C245.629 10.2991 248.188 9.65844 251.367 9.65844C253.052 9.65844 254.642 9.83463 256.136 10.187C257.63 10.5394 259.172 11.084 260.762 11.8208L258.473 17.2987C257.614 16.9143 256.756 16.5779 255.897 16.2896C255.071 16.0013 254.276 15.7771 253.513 15.6169C252.75 15.4567 252.035 15.3766 251.367 15.3766C250.477 15.3766 249.793 15.5048 249.316 15.761C248.84 15.9853 248.601 16.3377 248.601 16.8182C248.601 17.1706 248.728 17.5069 248.983 17.8273C249.269 18.1156 249.793 18.4359 250.556 18.7883C251.351 19.1407 252.496 19.6372 253.99 20.2779C255.484 20.8866 256.756 21.5273 257.805 22.2C258.854 22.8727 259.649 23.7056 260.189 24.6987C260.73 25.6918 261 26.9732 261 28.5429Z" fill="#FFD231"/>
<path d="M11.2008 2.47684C14.36 2.47684 16.9608 2.77884 19.0031 3.38283C21.0454 3.98683 22.5612 4.92461 23.5504 6.19619C24.5397 7.43597 25.0343 9.05722 25.0343 11.0599C25.0343 12.4269 24.795 13.6349 24.3163 14.6839C23.8376 15.7012 23.1994 16.5436 22.4016 17.2112C21.6039 17.847 20.7103 18.2602 19.7211 18.451V18.6894C20.7423 18.9119 21.7156 19.3093 22.641 19.8815C23.5664 20.4219 24.3163 21.2325 24.8907 22.3134C25.497 23.3942 25.8002 24.8247 25.8002 26.6049C25.8002 28.6712 25.2736 30.4514 24.2206 31.9455C23.1994 33.4396 21.7315 34.584 19.8168 35.3787C17.9022 36.1417 15.6365 36.5232 13.0198 36.5232H0V2.47684H11.2008ZM11.7274 15.7807C13.5463 15.7807 14.8227 15.4628 15.5567 14.827C16.2907 14.1594 16.6576 13.2693 16.6576 12.1567C16.6576 11.0441 16.2268 10.2175 15.3652 9.67711C14.5355 9.13669 13.2112 8.86648 11.3923 8.86648H8.13735V15.7807H11.7274ZM8.13735 21.9796V30.0381H12.206C14.1207 30.0381 15.445 29.6567 16.179 28.8937C16.9448 28.1308 17.3278 27.1294 17.3278 25.8896C17.3278 25.1267 17.1682 24.4591 16.8491 23.8869C16.53 23.2829 15.9715 22.822 15.1738 22.5041C14.4079 22.1544 13.3548 21.9796 12.0146 21.9796H8.13735Z" fill="white"/>
<path d="M53.3643 26.6526C53.3643 28.5917 52.8857 30.356 51.9283 31.9455C50.971 33.5032 49.535 34.743 47.6203 35.6649C45.7056 36.555 43.2964 37 40.3924 37C39.0522 37 37.8076 36.9205 36.6588 36.7616C35.51 36.6026 34.4091 36.3801 33.356 36.094C32.3349 35.7761 31.3297 35.3787 30.3404 34.9019V27.5109C32.0636 28.3056 33.8187 28.9732 35.6058 29.5136C37.4247 30.054 39.1639 30.3242 40.8232 30.3242C41.8763 30.3242 42.722 30.1971 43.3602 29.9428C44.0303 29.6567 44.509 29.2911 44.7962 28.846C45.1153 28.3692 45.2748 27.8288 45.2748 27.2248C45.2748 26.4936 45.0196 25.8738 44.509 25.3651C44.0303 24.8247 43.3123 24.3161 42.355 23.8392C41.3976 23.3306 40.2329 22.7584 38.8607 22.1226C37.8395 21.6776 36.8343 21.1689 35.8451 20.5967C34.8878 19.9927 34.0102 19.3093 33.2124 18.5463C32.4466 17.7516 31.8243 16.8138 31.3456 15.733C30.8989 14.6203 30.6755 13.317 30.6755 11.8229C30.6755 9.69301 31.1701 7.91281 32.1594 6.48229C33.1805 5.01998 34.6006 3.90736 36.4195 3.14441C38.2384 2.38147 40.3765 2 42.8336 2C44.844 2 46.6949 2.22252 48.3862 2.66757C50.0775 3.11262 51.7209 3.68483 53.3165 4.3842L50.7317 10.7262C49.1999 10.0586 47.7639 9.54995 46.4236 9.20027C45.1153 8.8188 43.8388 8.62807 42.5943 8.62807C41.7327 8.62807 41.0147 8.75522 40.4403 9.00954C39.8659 9.23206 39.4351 9.56585 39.1479 10.0109C38.8607 10.4242 38.7171 10.9169 38.7171 11.4891C38.7171 12.1567 38.9405 12.7448 39.3872 13.2534C39.834 13.7302 40.536 14.223 41.4934 14.7316C42.4507 15.2402 43.7112 15.8601 45.2748 16.5913C46.9661 17.3542 48.4181 18.1807 49.6307 19.0708C50.8433 19.9609 51.7688 21.01 52.407 22.218C53.0452 23.3942 53.3643 24.8724 53.3643 26.6526Z" fill="white"/>
<path d="M80.0968 36.5232L77.9907 29.2275H66.1676L64.0614 36.5232H55.1582L66.7898 2.33379H77.2248L89 36.5232H80.0968ZM74.1613 15.6376C74.0018 15.0654 73.7784 14.3025 73.4912 13.3488C73.2359 12.3633 72.9646 11.3619 72.6774 10.3447C72.4221 9.32743 72.2147 8.46912 72.0552 7.76975C71.9275 8.46912 71.7201 9.34332 71.4329 10.3924C71.1776 11.4096 70.9223 12.411 70.667 13.3965C70.4118 14.3501 70.2043 15.0972 70.0448 15.6376L68.0344 22.4564H76.1717L74.1613 15.6376Z" fill="white"/>
</svg>
